<?xml version="1.0" encoding="UTF-8"?>
<svg version="1.1" xmlns="http://www.w3.org/2000/svg" width="500" height="500">
<path d="M0 0 C0.72026226 -0.00367669 1.44052451 -0.00735338 2.1826129 -0.01114148 C4.59721304 -0.02215765 7.01177011 -0.02601884 9.4263916 -0.02983093 C11.158057 -0.03609777 12.88972107 -0.04274477 14.62138367 -0.04974365 C20.31484034 -0.07078236 26.00829724 -0.08115449 31.70178223 -0.09111023 C33.66763828 -0.09515962 35.6334942 -0.09927659 37.59934998 -0.10346031 C46.8482139 -0.12252146 56.09706986 -0.13674349 65.34594965 -0.14507228 C75.98237933 -0.1548106 86.618599 -0.18103664 97.25495481 -0.22157317 C105.49731976 -0.25189372 113.73962513 -0.26655665 121.9820447 -0.26985329 C126.89333193 -0.27218814 131.80439513 -0.28094023 136.71562195 -0.30631447 C141.35158663 -0.32987671 145.98718434 -0.33371748 150.62319374 -0.32355309 C152.30799403 -0.32306416 153.99281413 -0.3291899 155.67755699 -0.34310913 C180.91592676 -0.53963756 207.77665083 4.9822062 226.66271973 22.74482727 C230.09395516 26.49964896 232.62504606 30.59067221 234.85803223 35.14717102 C235.20608665 35.80914269 235.55414108 36.47111437 235.91274261 37.15314579 C237.3057161 41.56512462 237.1470862 45.81018695 237.13891602 50.41094971 C237.14485826 51.45481687 237.1508005 52.49868403 237.15692282 53.57418352 C237.17428785 57.07763035 237.17731256 60.58094041 237.18029785 64.08442688 C237.18955508 66.59443961 237.19960452 69.10444954 237.21038818 71.61445618 C237.23663749 78.43926367 237.24960105 85.26402616 237.2584095 92.08887553 C237.26394134 96.35498662 237.27241754 100.62108869 237.28141785 104.88719368 C237.30580389 116.71091485 237.32639956 128.53462882 237.33316803 140.3583746 C237.33382673 141.49309252 237.33382673 141.49309252 237.33449873 142.65073404 C237.33493529 143.40897874 237.33537184 144.16722345 237.33582163 144.94844526 C237.33670855 146.48482065 237.33760167 148.02119603 237.33850098 149.55757141 C237.33916527 150.70070363 237.33916527 150.70070363 237.33984298 151.86692942 C237.34772867 164.1986289 237.38260472 176.53009127 237.42922002 188.86169928 C237.47675064 201.53841367 237.50157657 214.2150094 237.50390387 226.89181429 C237.50573207 234.00281567 237.51710084 241.11350843 237.55354309 248.22442436 C237.58773566 254.91979814 237.59077373 261.61448895 237.57326508 268.30995941 C237.5717288 270.7600238 237.58035071 273.21012013 237.60018158 275.66010475 C237.6997929 288.73947861 237.66433305 299.66364741 230.85803223 311.14717102 C230.40154045 311.920437 229.94504868 312.69370298 229.47472382 313.49040127 C228.369934 315.26763207 227.19085268 316.9227538 225.92053223 318.58467102 C225.48869629 319.16611877 225.05686035 319.74756653 224.61193848 320.34663391 C212.5098073 336.37250293 194.77199183 346.31808699 174.85803223 349.14717102 C165.65022601 349.87526371 156.39084384 349.69178776 147.16174316 349.66133118 C144.38084554 349.66457341 141.59997573 349.67385602 138.8190918 349.68292236 C132.85851924 349.69932797 126.89808092 349.70159778 120.93749237 349.69415665 C112.30672698 349.68357979 103.67612394 349.69710597 95.04538015 349.71662121 C81.0210162 349.74787218 66.99668683 349.76295803 52.97229004 349.76631165 C52.13515119 349.76651563 51.29801235 349.76671962 50.43550566 349.76692979 C49.59732785 349.76713316 48.75915004 349.76733653 47.8955729 349.76754606 C36.00447337 349.77046802 24.11338452 349.77727838 12.22229004 349.78877258 C11.38497171 349.78957788 10.54765338 349.79038317 9.68496177 349.79121287 C-4.29612828 349.80498676 -18.27719934 349.82678631 -32.25827193 349.85264242 C-40.86410794 349.86804164 -49.46988171 349.87530805 -58.07573125 349.8718475 C-63.97196152 349.86980108 -69.86816085 349.87449596 -75.76438311 349.88439085 C-79.1603735 349.8898 -82.55621709 349.89082147 -85.9522171 349.88521767 C-89.64316583 349.87954944 -93.33390473 349.88615345 -97.02484131 349.89561462 C-98.08400261 349.89095141 -99.14316391 349.8862882 -100.23442101 349.88148367 C-112.15415396 349.94087025 -122.96471159 350.90021204 -132.14196777 359.14717102 C-136.91374588 364.46942569 -141.01876011 370.31950874 -145.14196777 376.14717102 C-145.99258531 377.33144407 -146.84407563 378.51509099 -147.69665527 379.69795227 C-149.30636742 381.93877638 -150.90449983 384.18736737 -152.49743652 386.44013977 C-155.57608636 390.77721582 -158.73305315 395.05587217 -161.89196777 399.33467102 C-162.48413086 400.13687073 -163.07629395 400.93907043 -163.68640137 401.76557922 C-165.5042024 404.22664364 -167.32296234 406.68699669 -169.14196777 409.14717102 C-176.56151324 419.18478221 -183.95002928 429.24145983 -191.24328613 439.37129211 C-195.79361706 445.68364258 -200.39635948 451.95632142 -205.02575684 458.21089172 C-207.84166338 462.01633163 -210.64166561 465.83082588 -213.39978027 469.67842102 C-213.9062207 470.38136292 -214.41266113 471.08430481 -214.93444824 471.80854797 C-215.88415747 473.12875516 -216.82876453 474.45265237 -217.76745605 475.78071594 C-218.84387156 477.27236776 -219.986601 478.71579996 -221.14196777 480.14717102 C-221.80196777 480.14717102 -222.46196777 480.14717102 -223.14196777 480.14717102 C-222.50618858 473.30925615 -221.30815657 466.76187434 -219.80603027 460.06513977 C-219.57094254 458.9983197 -219.3358548 457.93149963 -219.09364319 456.83235168 C-218.58656768 454.53267957 -218.07749563 452.23344696 -217.56661987 449.93461609 C-216.19456313 443.75776878 -214.83889593 437.57732197 -213.48181152 431.39717102 C-213.06373985 429.49556465 -213.06373985 429.49556465 -212.63722229 427.55554199 C-209.80668844 414.66151368 -207.05562605 401.75111953 -204.32946777 388.83467102 C-204.10082031 387.75235199 -203.87217285 386.67003296 -203.63659668 385.55491638 C-200.95227504 372.84104727 -198.30314587 360.1204794 -195.70043945 347.3896637 C-194.52348077 341.64026528 -193.33293352 335.89368167 -192.14196777 330.14717102 C-191.91847656 329.05839661 -191.69498535 327.96962219 -191.46472168 326.84785461 C-188.18922922 311.01919181 -184.68530403 295.91138742 -174.14196777 283.14717102 C-173.37819824 282.21517883 -173.37819824 282.21517883 -172.59899902 281.26435852 C-161.37457555 268.90363538 -144.28698783 262.89628573 -127.92749023 262.02989316 C-121.51422468 261.8367969 -115.09847792 261.86727028 -108.6829834 261.87593079 C-106.52336939 261.87153756 -104.36375708 261.86623325 -102.20414734 261.86009216 C-97.57331814 261.84863884 -92.94253441 261.8431362 -88.31169128 261.84221077 C-80.98151533 261.84026148 -73.65143281 261.82216207 -66.32128906 261.80145264 C-48.11878019 261.75238595 -29.91624613 261.72138739 -11.71368408 261.70014954 C2.44449927 261.68360776 16.6026019 261.66075211 30.76073122 261.61712879 C38.03984656 261.59541039 45.3188083 261.5872891 52.5979538 261.58952153 C57.13386155 261.58784936 61.66966976 261.57376799 66.20554161 261.55630875 C68.30005351 261.55073194 70.39458625 261.55020295 72.4890995 261.55524635 C89.77469885 261.59248887 104.12871118 260.31179941 117.85803223 248.58467102 C121.96153567 243.58352619 124.35909473 239.49691989 125.54553223 233.08467102 C125.77627441 231.89744446 126.0070166 230.7102179 126.24475098 229.48701477 C128.05427981 217.88507046 128.13808729 206.05182554 128.42053223 194.33467102 C128.44104645 193.50389038 128.46156067 192.67310974 128.48269653 191.81715393 C128.7861199 179.25169912 128.98453597 166.68542042 129.03427124 154.11631775 C129.04167867 152.40989984 129.05227036 150.70349228 129.0663147 148.99711609 C129.47036947 130.75114734 129.47036947 130.75114734 123.98303223 113.64717102 C123.49061035 112.70873352 122.99818848 111.77029602 122.49084473 110.80342102 C116.92662002 101.75157222 109.44444079 97.16149676 99.45333099 93.96492767 C92.3700989 92.35383482 85.19497298 92.62814813 77.97229004 92.69306946 C76.19714382 92.69419987 74.42199573 92.6935603 72.64685059 92.69129944 C67.86242288 92.69015891 63.07840207 92.7135603 58.29406834 92.74159527 C53.28129236 92.76671998 48.2685055 92.76895961 43.25567627 92.7736969 C33.77867378 92.78609429 24.30185742 92.81887184 14.82493663 92.85909486 C4.02924317 92.90391365 -6.76645951 92.92582497 -17.56222296 92.9458766 C-39.75557483 92.98760753 -61.94875954 93.05789625 -84.14196777 93.14717102 C-83.24629575 88.97939322 -81.23588219 85.82020047 -78.95446777 82.27217102 C-78.51666992 81.58163635 -78.07887207 80.89110168 -77.62780762 80.17964172 C-76.13771662 77.83214277 -74.63978615 75.48974597 -73.14196777 73.14717102 C-72.02297552 71.38837615 -70.90450268 69.62925072 -69.78649902 67.86982727 C-67.41827852 64.14403024 -65.04666329 60.42042258 -62.67321777 56.69795227 C-59.86508687 52.28989339 -57.07486634 47.87090631 -54.29260254 43.44648743 C-31.7959507 7.69808723 -31.7959507 7.69808723 -9.45137787 0.61095905 C-6.2779713 -0.02634135 -3.23708712 0.01072089 0 0 Z " fill="#0B8CCE" transform="translate(243.1419677734375,9.852828979492188)"/>
<path d="M0 0 C0.72026226 -0.00367669 1.44052451 -0.00735338 2.1826129 -0.01114148 C4.59721304 -0.02215765 7.01177011 -0.02601884 9.4263916 -0.02983093 C11.158057 -0.03609777 12.88972107 -0.04274477 14.62138367 -0.04974365 C20.31484034 -0.07078236 26.00829724 -0.08115449 31.70178223 -0.09111023 C33.66763828 -0.09515962 35.6334942 -0.09927659 37.59934998 -0.10346031 C46.8482139 -0.12252146 56.09706986 -0.13674349 65.34594965 -0.14507228 C75.98237933 -0.1548106 86.618599 -0.18103664 97.25495481 -0.22157317 C105.49731976 -0.25189372 113.73962513 -0.26655665 121.9820447 -0.26985329 C126.89333193 -0.27218814 131.80439513 -0.28094023 136.71562195 -0.30631447 C141.35158663 -0.32987671 145.98718434 -0.33371748 150.62319374 -0.32355309 C152.30799403 -0.32306416 153.99281413 -0.3291899 155.67755699 -0.34310913 C180.91592676 -0.53963756 207.77665083 4.9822062 226.66271973 22.74482727 C230.09395516 26.49964896 232.62504606 30.59067221 234.85803223 35.14717102 C235.20621506 35.82365189 235.55439789 36.50013275 235.91313171 37.19711304 C237.2545375 41.38509346 237.14474809 45.33532101 237.13269043 49.70747375 C237.14035683 51.14251755 237.14035683 51.14251755 237.1481781 52.60655212 C237.16206251 55.76468688 237.16111823 58.92260314 237.15881348 62.08076477 C237.16270091 64.27885011 237.16703568 66.4769347 237.17179871 68.67501831 C237.17925836 73.28075089 237.17897137 77.88640682 237.17370605 82.49214172 C237.16791054 88.39136713 237.18484584 94.29027866 237.20805073 100.18945217 C237.22278902 104.72851391 237.22365964 109.26750007 237.220541 113.8065815 C237.22105412 115.98146753 237.22629011 118.15635781 237.23635292 120.33122063 C237.24870217 123.37351201 237.24193453 126.41519201 237.23034668 129.45747375 C237.23799042 130.35376999 237.24563416 131.25006622 237.25350952 132.17352295 C237.21016516 137.32730187 236.48799072 140.58796227 233.85803223 145.14717102 C233.49661267 147.47631925 233.16103698 149.8097058 232.85803223 152.14717102 C232.20873633 153.48904921 231.5407136 154.82196599 230.85803223 156.14717102 C230.50482198 157.53810751 230.1732866 158.93464371 229.85803223 160.33467102 C229.52803223 161.59279602 229.19803223 162.85092102 228.85803223 164.14717102 C228.19803223 164.47717102 227.53803223 164.80717102 226.85803223 165.14717102 C226.85803223 166.46717102 226.85803223 167.78717102 226.85803223 169.14717102 C226.19803223 169.47717102 225.53803223 169.80717102 224.85803223 170.14717102 C224.24736078 172.00461309 224.24736078 172.00461309 223.85803223 174.14717102 C222.84555221 178.7756511 221.90708692 181.44780122 217.85803223 184.14717102 C217.88896973 185.35373352 217.88896973 185.35373352 217.92053223 186.58467102 C217.89990723 187.43029602 217.87928223 188.27592102 217.85803223 189.14717102 C215.85803223 190.77217102 215.85803223 190.77217102 213.85803223 192.14717102 C213.85803223 193.13717102 213.85803223 194.12717102 213.85803223 195.14717102 C212.90490723 196.97138977 212.90490723 196.97138977 211.60803223 198.83467102 C211.19037598 199.45728821 210.77271973 200.0799054 210.34240723 200.72138977 C208.85803223 202.14717102 208.85803223 202.14717102 204.85803223 202.14717102 C205.18803223 203.13717102 205.51803223 204.12717102 205.85803223 205.14717102 C203.87803223 206.13717102 203.87803223 206.13717102 201.85803223 207.14717102 C202.84803223 207.47717102 203.83803223 207.80717102 204.85803223 208.14717102 C203.2420839 210.1883689 201.57239403 212.18790039 199.85803223 214.14717102 C199.19803223 214.14717102 198.53803223 214.14717102 197.85803223 214.14717102 C197.58861816 214.74142883 197.3192041 215.33568665 197.04162598 215.94795227 C190.94497601 227.27605105 176.38591315 235.40418272 165.85803223 242.14717102 C163.85803223 241.14717102 163.85803223 241.14717102 162.85803223 240.14717102 C162.67240723 241.10623352 162.67240723 241.10623352 162.48303223 242.08467102 C162.27678223 242.76529602 162.07053223 243.44592102 161.85803223 244.14717102 C161.19803223 244.47717102 160.53803223 244.80717102 159.85803223 245.14717102 C159.85803223 244.48717102 159.85803223 243.82717102 159.85803223 243.14717102 C158.20803223 243.47717102 156.55803223 243.80717102 154.85803223 244.14717102 C155.18803223 245.13717102 155.51803223 246.12717102 155.85803223 247.14717102 C155.19803223 247.47717102 154.53803223 247.80717102 153.85803223 248.14717102 C153.85803223 247.48717102 153.85803223 246.82717102 153.85803223 246.14717102 C153.19803223 246.47717102 152.53803223 246.80717102 151.85803223 247.14717102 C151.85803223 248.13717102 151.85803223 249.12717102 151.85803223 250.14717102 C150.53803223 250.47717102 149.21803223 250.80717102 147.85803223 251.14717102 C147.52803223 250.48717102 147.19803223 249.82717102 146.85803223 249.14717102 C146.19803223 249.14717102 145.53803223 249.14717102 144.85803223 249.14717102 C144.52803223 249.80717102 144.19803223 250.46717102 143.85803223 251.14717102 C142.53803223 251.14717102 141.21803223 251.14717102 139.85803223 251.14717102 C139.85803223 251.80717102 139.85803223 252.46717102 139.85803223 253.14717102 C139.21994629 253.1961554 138.58186035 253.24513977 137.92443848 253.29560852 C136.68500488 253.40775696 136.68500488 253.40775696 135.42053223 253.52217102 C134.59682129 253.5917804 133.77311035 253.66138977 132.92443848 253.73310852 C132.24252441 253.86974915 131.56061035 254.00638977 130.85803223 254.14717102 C130.52803223 254.80717102 130.19803223 255.46717102 129.85803223 256.14717102 C129.19803223 255.81717102 128.53803223 255.48717102 127.85803223 255.14717102 C127.52803223 255.80717102 127.19803223 256.46717102 126.85803223 257.14717102 C124.67834473 257.74482727 124.67834473 257.74482727 121.98303223 258.20967102 C119.14714782 258.70987804 116.59735374 259.23406385 113.85803223 260.14717102 C112.86803223 259.81717102 111.87803223 259.48717102 110.85803223 259.14717102 C110.85803223 259.80717102 110.85803223 260.46717102 110.85803223 261.14717102 C109.20803223 260.81717102 107.55803223 260.48717102 105.85803223 260.14717102 C109.57674619 256.20919326 113.76156226 253.31272651 118.20178223 250.24482727 C123.08420594 246.38914855 126.24851617 242.22545502 127.17883301 236.00068665 C127.47840858 233.3018647 127.7092026 230.60433315 127.92053223 227.89717102 C128.00359619 226.9024176 128.08666016 225.90766418 128.17224121 224.88276672 C128.87923092 215.94772374 129.25507418 207.00487199 129.51647949 198.04658508 C129.54798096 197.04208313 129.57948242 196.03758118 129.61193848 195.00263977 C129.64783081 193.66688904 129.64783081 193.66688904 129.68444824 192.30415344 C129.85803223 190.14717102 129.85803223 190.14717102 130.85803223 188.14717102 C130.19803223 188.14717102 129.53803223 188.14717102 128.85803223 188.14717102 C128.86247345 187.48699478 128.86691467 186.82681854 128.87149048 186.14663696 C128.91605177 179.21869593 128.94603357 172.29079622 128.96789551 165.36274719 C128.97789646 162.7839543 128.99150155 160.20517258 129.00891113 157.62641907 C129.03342076 153.90023525 129.04457477 150.17420255 129.05334473 146.44795227 C129.0636673 145.31199112 129.07398987 144.17602997 129.08462524 143.00564575 C129.08598703 133.08797141 128.80233054 122.53665392 123.98303223 113.64717102 C123.49061035 112.70873352 122.99818848 111.77029602 122.49084473 110.80342102 C116.92662002 101.75157222 109.44444079 97.16149676 99.45333099 93.96492767 C92.3700989 92.35383482 85.19497298 92.62814813 77.97229004 92.69306946 C76.19714382 92.69419987 74.42199573 92.6935603 72.64685059 92.69129944 C67.86242288 92.69015891 63.07840207 92.7135603 58.29406834 92.74159527 C53.28129236 92.76671998 48.2685055 92.76895961 43.25567627 92.7736969 C33.77867378 92.78609429 24.30185742 92.81887184 14.82493663 92.85909486 C4.02924317 92.90391365 -6.76645951 92.92582497 -17.56222296 92.9458766 C-39.75557483 92.98760753 -61.94875954 93.05789625 -84.14196777 93.14717102 C-83.24629575 88.97939322 -81.23588219 85.82020047 -78.95446777 82.27217102 C-78.51666992 81.58163635 -78.07887207 80.89110168 -77.62780762 80.17964172 C-76.13771662 77.83214277 -74.63978615 75.48974597 -73.14196777 73.14717102 C-72.02297552 71.38837615 -70.90450268 69.62925072 -69.78649902 67.86982727 C-67.41827852 64.14403024 -65.04666329 60.42042258 -62.67321777 56.69795227 C-59.86508687 52.28989339 -57.07486634 47.87090631 -54.29260254 43.44648743 C-31.7959507 7.69808723 -31.7959507 7.69808723 -9.45137787 0.61095905 C-6.2779713 -0.02634135 -3.23708712 0.01072089 0 0 Z " fill="#0893D5" transform="translate(243.1419677734375,9.852828979492188)"/>
<path d="M0 0 C0.88602073 -0.00453111 1.77204147 -0.00906223 2.68491131 -0.01373065 C5.65970896 -0.02641105 8.63432439 -0.02475193 11.60914612 -0.02310181 C13.73952979 -0.02908472 15.86991129 -0.03588972 18.00028992 -0.04345703 C23.79153795 -0.06114685 29.58272692 -0.06581363 35.37399936 -0.0670886 C40.20521327 -0.06898607 45.03641336 -0.07634174 49.86762196 -0.08343279 C61.26307852 -0.09972516 72.65850347 -0.10460091 84.05397034 -0.10317993 C95.81808193 -0.1019778 107.58201027 -0.12309212 119.34607548 -0.15466726 C129.43957778 -0.18079545 139.5330201 -0.1915487 149.62655598 -0.19026911 C155.65795744 -0.18975853 161.68919604 -0.19549526 167.72056389 -0.21662521 C173.39147539 -0.23594969 179.06206769 -0.2361717 184.73299026 -0.22159195 C186.81593477 -0.21949565 188.89889896 -0.2242533 190.98180962 -0.23631287 C193.82223584 -0.25169501 196.66155168 -0.24250382 199.50195312 -0.22705078 C200.32899622 -0.23733791 201.15603931 -0.24762503 202.00814432 -0.25822389 C205.98023959 -0.21036639 207.86449959 -0.02197235 211.29152012 2.18211937 C213.19412526 4.1433728 214.25566834 5.4783288 215.18946838 8.01742554 C215.5568512 8.93781616 215.5568512 8.93781616 215.93165588 9.87680054 C216.97965792 16.42146633 215.16876948 21.29932195 211.81446838 26.82992554 C211.46062073 27.42216919 211.10677307 28.01441284 210.74220276 28.62460327 C209.99231631 29.87632922 209.23633894 31.12442432 208.47462463 32.36898804 C207.32288929 34.25364588 206.19100784 36.14886683 205.06446838 38.04867554 C203.19923342 41.18982524 201.31203069 44.31702854 199.41700745 47.4402771 C198.33822366 49.22805785 197.27424179 51.02393245 196.21290588 52.82211304 C190.22913127 62.82587523 185.61243314 70.34158946 174.31446838 74.26742554 C171.25507698 74.78079985 168.28358392 74.81405614 165.18624878 74.78208923 C164.3129957 74.78903476 163.43974262 74.79598029 162.54002732 74.80313629 C159.63815883 74.82131161 156.73711666 74.81116868 153.83522034 74.8008728 C151.74512626 74.80793585 149.6550373 74.81668248 147.56495667 74.82698059 C141.90609211 74.84943515 136.24750774 74.84654483 130.58861566 74.83765912 C125.86161603 74.83254247 121.13466873 74.83984691 116.40767449 74.84713119 C105.25896465 74.86411607 94.11039175 74.86057657 82.96168518 74.84384155 C71.46042682 74.82690074 59.95954746 74.84278509 48.45833045 74.87506443 C38.57785367 74.90174425 28.69749498 74.90904128 18.81698579 74.90054935 C12.91806919 74.89561805 7.01938092 74.89784777 1.12049294 74.91833687 C-4.42253631 74.93666992 -9.96501877 74.93076399 -15.50801849 74.90613747 C-17.54216297 74.90112309 -19.57634896 74.90463551 -21.61046028 74.91728592 C-24.38702536 74.93318846 -27.16178345 74.91829253 -29.93826294 74.89561462 C-31.14599673 74.91336822 -31.14599673 74.91336822 -32.37812918 74.93148047 C-38.13914453 74.8358532 -40.66561801 73.41285024 -44.68553162 69.26742554 C-47.45615547 64.12888478 -47.44813399 58.95321973 -46.68553162 53.26742554 C-45.60545349 50.76864624 -45.60545349 50.76864624 -44.15428162 48.25570679 C-43.60965271 47.30244507 -43.0650238 46.34918335 -42.50389099 45.36703491 C-41.6038031 43.83272827 -41.6038031 43.83272827 -40.68553162 42.26742554 C-40.05969177 41.18267944 -39.43385193 40.09793335 -38.78904724 38.98031616 C-37.11459323 36.0925855 -35.4267823 33.21394889 -33.72654724 30.34140015 C-32.68206519 28.57406009 -31.64470519 26.80266078 -30.60740662 25.03109741 C-15.82981532 -0.05912181 -15.82981532 -0.05912181 0 0 Z " fill="#019DDF" transform="translate(234.68553161621094,396.7325744628906)"/>
<path d="M0 0 C0 0.66 0 1.32 0 2 C44.88 2 89.76 2 136 2 C136.33 2.99 136.66 3.98 137 5 C135.02 4.67 133.04 4.34 131 4 C131 4.66 131 5.32 131 6 C130.39671875 6.04898437 129.7934375 6.09796875 129.171875 6.1484375 C128.37265625 6.22320312 127.5734375 6.29796875 126.75 6.375 C125.96109375 6.44460938 125.1721875 6.51421875 124.359375 6.5859375 C121.90095233 7.01738254 120.1809261 7.81673158 118 9 C116.67139075 9.35169068 115.33841672 9.68770276 114 10 C113.34 10.33 112.68 10.66 112 11 C111.67 10.67 111.34 10.34 111 10 C110.01 10.66 109.02 11.32 108 12 C105.8125 11.625 105.8125 11.625 104 11 C103.67 11.99 103.34 12.98 103 14 C102.01 14.33 101.02 14.66 100 15 C99.67 14.67 99.34 14.34 99 14 C98.34 14.66 97.68 15.32 97 16 C97 15.34 97 14.68 97 14 C93.9254644 14.7763932 93.9254644 14.7763932 92 17 C90.10472282 18.89527718 87.2676643 18.97829749 84.6875 19.1875 C81.87928721 20.03649456 80.9944114 20.77142201 78.90234375 22.72265625 C74.89294671 26.24444518 70.56022991 28.73256303 65.875 31.25 C64.69744141 31.8996875 64.69744141 31.8996875 63.49609375 32.5625 C53.54412616 38 53.54412616 38 50 38 C49.01 38.495 49.01 38.495 48 39 C48 39.99 48 40.98 48 42 C46.19921875 43.7265625 46.19921875 43.7265625 43.6875 45.625 C42.30111328 46.70007813 42.30111328 46.70007813 40.88671875 47.796875 C39.09805046 49.16197502 37.30905256 50.5266434 35.51953125 51.890625 C22.709214 61.97999115 10.69064711 73.86992633 1 87 C-0.32813928 88.67080867 -1.66031106 90.33843775 -3 92 C-2.071875 91.484375 -1.14375 90.96875 -0.1875 90.4375 C3 89 3 89 6 90 C5.35675781 90.30808594 4.71351562 90.61617188 4.05078125 90.93359375 C-5.94893554 96.42559227 -11.53076916 104.85651375 -18 114 C-18.85061754 115.18427305 -19.70210786 116.36791997 -20.5546875 117.55078125 C-22.16439965 119.79160536 -23.76253205 122.04019635 -25.35546875 124.29296875 C-28.43411859 128.6300448 -31.59108538 132.90870115 -34.75 137.1875 C-35.34216309 137.98969971 -35.93432617 138.79189941 -36.54443359 139.6184082 C-38.36223463 142.07947261 -40.18099457 144.53982567 -42 147 C-49.41954546 157.03761119 -56.8080615 167.09428881 -64.10131836 177.22412109 C-68.65164928 183.53647156 -73.25439171 189.8091504 -77.88378906 196.0637207 C-80.69969561 199.86916061 -83.49969783 203.68365486 -86.2578125 207.53125 C-86.76425293 208.23419189 -87.27069336 208.93713379 -87.79248047 209.66137695 C-88.7421897 210.98158414 -89.68679676 212.30548135 -90.62548828 213.63354492 C-91.70190378 215.12519674 -92.84463323 216.56862894 -94 218 C-94.66 218 -95.32 218 -96 218 C-95.3642208 211.16208513 -94.16618879 204.61470332 -92.6640625 197.91796875 C-92.42897476 196.85114868 -92.19388702 195.78432861 -91.95167542 194.68518066 C-91.44459991 192.38550855 -90.93552786 190.08627594 -90.4246521 187.78744507 C-89.05259535 181.61059776 -87.69692816 175.43015095 -86.33984375 169.25 C-86.0611293 167.98226242 -85.78241486 166.71452484 -85.49525452 165.40837097 C-82.66472066 152.51434266 -79.91365827 139.60394851 -77.1875 126.6875 C-76.95885254 125.60518097 -76.73020508 124.52286194 -76.49462891 123.40774536 C-73.81030727 110.69387625 -71.1611781 97.97330838 -68.55847168 85.24249268 C-67.381513 79.49309426 -66.19096575 73.74651065 -65 68 C-64.77650879 66.91122559 -64.55301758 65.82245117 -64.32275391 64.70068359 C-61.04726145 48.87202079 -57.54333626 33.7642164 -47 21 C-46.49082031 20.37867188 -45.98164062 19.75734375 -45.45703125 19.1171875 C-34.32152522 6.85438332 -16.42818432 0 0 0 Z " fill="#177EC0" transform="translate(116,272)"/>
<path d="M0 0 C1.05692047 0.00212242 1.05692047 0.00212242 2.13519287 0.00428772 C4.37663084 0.00986692 6.61796743 0.02241552 8.859375 0.03515625 C10.38281105 0.04017394 11.90624868 0.04473638 13.4296875 0.04882812 C17.15628272 0.05982951 20.88281896 0.07707979 24.609375 0.09765625 C25.104375 1.08765625 25.104375 1.08765625 25.609375 2.09765625 C27.46471663 2.74591706 27.46471663 2.74591706 29.609375 3.16015625 C33.51598092 4.00426217 33.51598092 4.00426217 34.609375 5.09765625 C35.93458003 5.78033763 37.26749682 6.44836035 38.609375 7.09765625 C37.81751143 29.28593099 36.23760584 51.3808263 34.046875 73.47265625 C33.92006348 74.75664307 33.79325195 76.04062988 33.66259766 77.36352539 C33.54062012 78.56227295 33.41864258 79.76102051 33.29296875 80.99609375 C33.18525146 82.05489746 33.07753418 83.11370117 32.96655273 84.20458984 C32.63674757 86.87594402 32.1520135 89.46307312 31.609375 92.09765625 C7.83391967 93.20876702 -15.91572332 93.2207303 -39.71179199 93.1663208 C-44.76814341 93.15590065 -49.82450021 93.15148409 -54.88085938 93.14648438 C-64.71746156 93.13591228 -74.55404058 93.1189554 -84.390625 93.09765625 C-83.49495298 88.92987845 -81.48453942 85.7706857 -79.203125 82.22265625 C-78.76532715 81.53212158 -78.3275293 80.84158691 -77.87646484 80.13012695 C-76.38637384 77.782628 -74.88844338 75.4402312 -73.390625 73.09765625 C-72.27163274 71.33886138 -71.15315991 69.57973595 -70.03515625 67.8203125 C-67.66693575 64.09451547 -65.29532052 60.37090781 -62.921875 56.6484375 C-60.11374409 52.24037862 -57.32352357 47.82139154 -54.54125977 43.39697266 C-32.12269063 7.77265013 -32.12269063 7.77265013 -9.71557617 0.55834961 C-6.45601304 -0.08753883 -3.32158075 -0.01318088 0 0 Z " fill="#019ADC" transform="translate(243.390625,9.90234375)"/>
<path d="M0 0 C1.02663443 -0.0003616 1.02663443 -0.0003616 2.07400894 -0.00073051 C4.28156954 0.00075799 6.48878916 0.01596912 8.69628906 0.03173828 C10.06233559 0.03468016 11.42838436 0.03671971 12.79443359 0.0378418 C17.85029488 0.04831235 22.90610785 0.07623487 27.96191406 0.10205078 C39.26441406 0.14330078 50.56691406 0.18455078 62.21191406 0.22705078 C62.21191406 24.64705078 62.21191406 49.06705078 62.21191406 74.22705078 C37.74554037 74.42759483 37.74554037 74.42759483 27.31347656 74.47119141 C20.1960994 74.50107655 13.07904397 74.53642396 5.96191406 74.60424805 C0.22363892 74.65858962 -5.5142912 74.68847624 -11.2528038 74.701437 C-13.4416942 74.7106729 -15.63056579 74.72870859 -17.81930923 74.75570107 C-20.88630166 74.79201892 -23.95186997 74.79699485 -27.01904297 74.79467773 C-27.92319443 74.81265411 -28.82734589 74.83063049 -29.75889587 74.84915161 C-34.05270922 74.81406955 -36.89917535 74.59169856 -40.31466675 71.84733582 C-44.04662133 67.89378651 -45.09580831 64.46980122 -45.28808594 59.10205078 C-45.15444842 54.76680408 -44.42196334 51.96460126 -42.25683594 48.21533203 C-41.71220703 47.26207031 -41.16757813 46.30880859 -40.60644531 45.32666016 C-39.70635742 43.79235352 -39.70635742 43.79235352 -38.78808594 42.22705078 C-38.16224609 41.14230469 -37.53640625 40.05755859 -36.89160156 38.93994141 C-35.21714755 36.05221074 -33.52933663 33.17357413 -31.82910156 30.30102539 C-30.78461951 28.53368533 -29.74725951 26.76228602 -28.70996094 24.99072266 C-13.96096108 -0.05095241 -13.96096108 -0.05095241 0 0 Z " fill="#296DAE" transform="translate(232.7880859375,396.77294921875)"/>
<path d="M0 0 C1.04199554 -0.01226624 1.04199554 -0.01226624 2.1050415 -0.02478027 C4.40221299 -0.04957844 6.699323 -0.0661342 8.99658203 -0.08056641 C9.78193455 -0.08589008 10.56728706 -0.09121376 11.37643814 -0.09669876 C15.5318733 -0.12340372 19.68727867 -0.14278867 23.84277344 -0.15722656 C27.28054347 -0.17057649 30.71772142 -0.19845116 34.15527344 -0.23925781 C38.30850798 -0.28855752 42.46120473 -0.31334372 46.61471939 -0.32045364 C48.19598386 -0.32716728 49.77723628 -0.34239249 51.35833359 -0.36634445 C53.5728586 -0.3979833 55.78530812 -0.39803648 58 -0.390625 C59.88838089 -0.40275528 59.88838089 -0.40275528 61.81491089 -0.41513062 C66.04069047 0.36003725 67.51361131 1.84971614 70.12939453 5.19287109 C70.92886101 9.66261551 70.40654139 11.6889163 68.21533203 15.67333984 C67.32797433 16.92076518 66.42310038 18.15584947 65.50439453 19.38037109 C64.49127276 20.79045483 63.478257 22.20061473 62.46533203 23.61083984 C61.92360352 24.35253418 61.381875 25.09422852 60.82373047 25.85839844 C58.47637169 29.09261236 56.19132887 32.3688479 53.90551758 35.64672852 C52.72024698 37.34586076 51.53159623 39.04264004 50.33959961 40.73706055 C47.52896655 44.73343546 44.74631416 48.74246533 42.03955078 52.81005859 C41.31541992 53.8909375 41.31541992 53.8909375 40.57666016 54.99365234 C39.69036293 56.32122309 38.81196187 57.65412087 37.94384766 58.99365234 C33.37102135 65.81986176 28.01656891 70.54121923 20.12939453 73.19287109 C16.70175171 73.57382202 16.70175171 73.57382202 13.08007812 73.58105469 C12.08109749 73.58894012 12.08109749 73.58894012 11.06193542 73.59698486 C8.88365495 73.61007593 6.70611854 73.60148846 4.52783203 73.59130859 C3.00281638 73.593332 1.47780167 73.59624566 -0.04721069 73.6000061 C-3.23290276 73.60441425 -6.41834143 73.59804562 -9.60400391 73.58398438 C-13.68060196 73.56686395 -17.75660863 73.57676089 -21.8331852 73.59470177 C-24.97824541 73.60555578 -28.12316596 73.6020864 -31.26823044 73.59431839 C-32.77128546 73.59232235 -34.27435331 73.59475466 -35.77739334 73.60175705 C-37.87862904 73.6094018 -39.97891307 73.59772794 -42.08007812 73.58105469 C-43.87041977 73.57747452 -43.87041977 73.57747452 -45.69692993 73.57382202 C-49.19774832 73.15360263 -51.05581405 72.27646427 -53.87060547 70.19287109 C-56.80208423 66.45270854 -57.24418562 63.88013459 -56.87060547 59.19287109 C-55.72607422 56.76318359 -55.72607422 56.76318359 -54.05810547 54.31787109 C-53.41357422 53.36009766 -52.76904297 52.40232422 -52.10498047 51.41552734 C-51.36763672 50.35205078 -50.63029297 49.28857422 -49.87060547 48.19287109 C-49.06231989 47.00474456 -48.25507082 45.81591239 -47.44873047 44.62646484 C-45.14304983 41.23729257 -42.809388 37.86821692 -40.46972656 34.50244141 C-38.73515288 31.99724033 -37.01572521 29.48198683 -35.29638672 26.96630859 C-34.07148687 25.18741443 -32.84623115 23.40876525 -31.62060547 21.63037109 C-31.05462646 20.79771729 -30.48864746 19.96506348 -29.90551758 19.10717773 C-22.18268745 7.96123101 -14.16483314 0.14488295 0 0 Z " fill="#019ADC" transform="translate(136.87060546875,397.80712890625)"/>
<path d="M0 0 C38.81544963 18.52107749 66.18717692 48.05575987 81.14892578 88.34375 C83.80022049 95.84461858 85.56438373 103.01838568 86 111 C83.82136657 108.82136657 82.93199687 106.96382775 81.625 104.1875 C76.92643272 94.72246707 70.60407288 89.45274076 60.63574219 85.85449219 C53.39024077 83.52922258 46.37505068 83.39525806 38.828125 83.390625 C37.41036122 83.37560398 35.99261469 83.35886878 34.57489014 83.34051514 C30.88593639 83.29726802 27.19721841 83.2769388 23.50805664 83.26177979 C19.72658587 83.24205268 15.94536417 83.20010168 12.1640625 83.16015625 C4.77610935 83.08531773 -2.61173777 83.03474797 -10 83 C-9.68876263 78.58194137 -9.3757741 74.16400839 -9.0625 69.74609375 C-8.97548828 68.51064819 -8.88847656 67.27520264 -8.79882812 66.00231934 C-8.05816397 55.57644265 -7.19875058 45.16525484 -6.24560547 34.75683594 C-5.99331162 31.92492528 -5.76274195 29.09180778 -5.53515625 26.2578125 C-5.37787937 24.40101834 -5.22033755 22.54424659 -5.0625 20.6875 C-4.9687207 19.44335327 -4.9687207 19.44335327 -4.87304688 18.17407227 C-3.58561274 3.58561274 -3.58561274 3.58561274 0 0 Z " fill="#2567A6" transform="translate(285,19)"/>
<path d="M0 0 C-0.66 0.99 -1.32 1.98 -2 3 C-2.33042688 6.13516928 -2.33042688 6.13516928 -2.31884766 9.76635742 C-2.33391609 10.79113945 -2.33391609 10.79113945 -2.34928894 11.83662415 C-2.38015886 14.09289719 -2.39716632 16.34905137 -2.4140625 18.60546875 C-2.43277112 20.17060878 -2.45234431 21.73573869 -2.4727478 23.30085754 C-2.52410748 27.41895588 -2.56371256 31.53708694 -2.60089111 35.65533447 C-2.64090679 39.85819619 -2.69201022 44.06092137 -2.7421875 48.26367188 C-2.83899217 56.50902136 -2.92338231 64.75443834 -3 73 C-9.17469663 73.07423798 -15.34913261 73.12864413 -21.52416992 73.16479492 C-23.62415086 73.17986772 -25.7241004 73.20032941 -27.82397461 73.22631836 C-30.84496824 73.26276754 -33.86554511 73.27974159 -36.88671875 73.29296875 C-37.82335861 73.30845261 -38.75999847 73.32393646 -39.72502136 73.33988953 C-44.6369862 73.34115355 -48.0385178 73.25168613 -52 70 C-54.93147876 66.25983745 -55.37358015 63.68726349 -55 59 C-53.85546875 56.5703125 -53.85546875 56.5703125 -52.1875 54.125 C-51.54296875 53.16722656 -50.8984375 52.20945312 -50.234375 51.22265625 C-49.49703125 50.15917969 -48.7596875 49.09570312 -48 48 C-47.19171442 46.81187347 -46.38446535 45.6230413 -45.578125 44.43359375 C-43.27244436 41.04442148 -40.93878253 37.67534582 -38.59912109 34.30957031 C-36.86454741 31.80436924 -35.14511974 29.28911573 -33.42578125 26.7734375 C-32.2008814 24.99454334 -30.97562568 23.21589416 -29.75 21.4375 C-29.184021 20.60484619 -28.61804199 19.77219238 -28.03491211 18.91430664 C-21.17821626 9.01840509 -12.98856501 -0.3510423 0 0 Z " fill="#2C6EB0" transform="translate(135,398)"/>
<path d="M0 0 C53.79 0 107.58 0 163 0 C159.29742121 1.8512894 157.54936234 2.32393848 153.578125 2.6328125 C152.55332031 2.71660156 151.52851563 2.80039062 150.47265625 2.88671875 C148.87744141 3.00466797 148.87744141 3.00466797 147.25 3.125 C146.17105469 3.21136719 145.09210938 3.29773438 143.98046875 3.38671875 C141.32080344 3.5985505 138.66077581 3.80269402 136 4 C136 3.34 136 2.68 136 2 C91.12 2 46.24 2 0 2 C0 1.34 0 0.68 0 0 Z " fill="#2CB3EB" transform="translate(116,272)"/>
<path d="M0 0 C0.66 0 1.32 0 2 0 C1.28660375 30.03224196 1.28660375 30.03224196 0.25 42.4375 C0.20053223 43.20288086 0.15106445 43.96826172 0.10009766 44.75683594 C-0.58052019 51.82955011 -3.67089942 56.73448119 -8.71875 61.64453125 C-10.09546875 62.71767578 -10.09546875 62.71767578 -11.5 63.8125 C-12.4178125 64.54082031 -13.335625 65.26914062 -14.28125 66.01953125 C-16.78416197 67.84277316 -19.31631976 69.45882856 -22 71 C-21.505 71.99 -21.505 71.99 -21 73 C-27.34823202 75.30844801 -33.29481414 75.19818283 -40 75 C-37.52055443 72.52055443 -36.03741592 72.47975718 -32.625 71.8125 C-22.1780464 69.3359057 -13.36688322 63.91415834 -6.97973633 55.26391602 C-0.5560164 44.6733732 -1.32678063 29.60278622 -0.8125 17.5625 C-0.73085395 15.84825762 -0.64817729 14.13406401 -0.56445312 12.41992188 C-0.36446284 8.28041164 -0.17826842 4.14050019 0 0 Z " fill="#4277B1" transform="translate(372,198)"/>
<path d="M0 0 C-0.99 1.485 -0.99 1.485 -2 3 C-2.33042688 6.13516928 -2.33042688 6.13516928 -2.31884766 9.76635742 C-2.32889328 10.44954544 -2.3389389 11.13273346 -2.34928894 11.83662415 C-2.38015886 14.09289719 -2.39716632 16.34905137 -2.4140625 18.60546875 C-2.43277112 20.17060878 -2.45234431 21.73573869 -2.4727478 23.30085754 C-2.52410748 27.41895588 -2.56371256 31.53708694 -2.60089111 35.65533447 C-2.64090679 39.85819619 -2.69201022 44.06092137 -2.7421875 48.26367188 C-2.83899217 56.50902136 -2.92338231 64.75443834 -3 73 C-3.66 73 -4.32 73 -5 73 C-5.1447722 65.76331025 -5.2868745 58.52657136 -5.42724609 51.28979492 C-5.47515483 48.83535617 -5.52364253 46.38092865 -5.57275391 43.92651367 C-5.84534677 30.2829626 -6.0872372 16.646564 -6 3 C-8.64 3.66 -11.28 4.32 -14 5 C-10.39689122 0.59620038 -5.480803 -0.32240018 0 0 Z " fill="#1C7BC0" transform="translate(135,398)"/>
<path d="M0 0 C2.23258977 6.69776931 0.36753093 14.5287488 -2 21 C-1.979375 21.763125 -1.95875 22.52625 -1.9375 23.3125 C-1.99966524 25.98560511 -2.47576589 27.57506633 -3.375 30.0625 C-5.00000097 34.65522575 -5.79443543 39.19840342 -6.53515625 44.00390625 C-6.97015934 46.80766566 -7.45970889 49.5897784 -8 52.375 C-8.144375 53.12523437 -8.28875 53.87546875 -8.4375 54.6484375 C-9 57 -9 57 -9.93359375 59.73828125 C-11.23498761 63.718735 -12.16014976 67.72619149 -13.0625 71.8125 C-13.23587891 72.56853516 -13.40925781 73.32457031 -13.58789062 74.10351562 C-14.63794119 78.82270841 -15.31454689 83.43162077 -15.65405273 88.2565918 C-15.76821533 88.8319165 -15.88237793 89.40724121 -16 90 C-16.99 90.495 -16.99 90.495 -18 91 C-18.21729608 84.88423027 -17.46681394 79.57941627 -16.05859375 73.640625 C-15.85536499 72.74960587 -15.65213623 71.85858673 -15.44274902 70.94056702 C-15.00696055 69.03132917 -14.56759967 67.12290378 -14.12496948 65.21524048 C-12.95950977 60.18829977 -11.82184649 55.1551341 -10.6875 50.12109375 C-10.45852524 49.10585129 -10.22955048 48.09060883 -9.99363708 47.04460144 C-7.44141131 35.64147609 -5.22478753 24.17815853 -3.07006836 12.69433594 C-2.86806824 11.62402382 -2.86806824 11.62402382 -2.6619873 10.53208923 C-2.30362456 8.62792465 -1.95031774 6.72281047 -1.59741211 4.81762695 C-1 2 -1 2 0 0 Z " fill="#4071A6" transform="translate(55,323)"/>
<path d="M0 0 C1.09267403 3.32419143 0.88036715 5.60602158 0.125 9 C-0.05804688 9.845625 -0.24109375 10.69125 -0.4296875 11.5625 C-0.76683274 13.00344952 -1.11422799 14.44217285 -1.484375 15.875 C-2.21770607 18.89721288 -2.78348387 21.9470135 -3.375 25 C-4.31995062 29.83537001 -5.37477136 34.60697115 -6.625 39.375 C-7.73317616 43.64119113 -8.36650479 47.74235366 -8.7578125 52.125 C-9.07983274 54.61805989 -10.03912724 56.682601 -11 59 C-11.75486139 62.31728205 -12.38917929 65.65348226 -13 69 C-12.34 69 -11.68 69 -11 69 C-11.8125 71.4375 -11.8125 71.4375 -13 74 C-14.485 74.495 -14.485 74.495 -16 75 C-15.33976661 67.66123336 -13.9510722 60.62810713 -12.34765625 53.44140625 C-12.08746201 52.25707504 -11.82726776 51.07274384 -11.55918884 49.8525238 C-10.73132358 46.08820501 -9.89715457 42.32531864 -9.0625 38.5625 C-8.23270754 34.80297795 -7.40423102 31.04316931 -6.57652283 27.28318787 C-6.0626877 24.95104038 -5.54743963 22.61920358 -5.03053284 20.28773499 C-3.74758907 14.48512879 -2.52203469 8.68220198 -1.4372406 2.838974 C-1 1 -1 1 0 0 Z " fill="#3B6696" transform="translate(36,415)"/>
<path d="M0 0 C2.23258977 6.69776931 0.36753093 14.5287488 -2 21 C-1.979375 21.763125 -1.95875 22.52625 -1.9375 23.3125 C-2.0344204 27.48007729 -3.60663545 31.10234511 -5 35 C-5.56632507 36.68622015 -6.12899092 38.37367493 -6.6875 40.0625 C-7.125 41.375 -7.5625 42.6875 -8 44 C-9.71997746 40.56004508 -8.1339216 36.76717618 -7.3828125 33.125 C-7.20620087 32.24473145 -7.02958923 31.36446289 -6.84762573 30.45751953 C-6.47238312 28.59408639 -6.09388329 26.73130667 -5.71240234 24.86914062 C-5.12769466 22.01316196 -4.55323134 19.15527058 -3.98046875 16.296875 C-3.61518524 14.48946158 -3.24931931 12.68216575 -2.8828125 10.875 C-2.7098465 10.01664551 -2.53688049 9.15829102 -2.3586731 8.27392578 C-1.11643637 2.23287274 -1.11643637 2.23287274 0 0 Z " fill="#447BB7" transform="translate(55,323)"/>
<path d="M0 0 C1.85625 0.0309375 1.85625 0.0309375 3.75 0.0625 C3.75 0.3925 3.75 0.7225 3.75 1.0625 C2.73421875 1.28164062 1.7184375 1.50078125 0.671875 1.7265625 C-15.11918441 5.28706491 -25.36445881 11.13472614 -36.25 23.0625 C-36.25 18.79459837 -34.30016269 17.25864618 -31.5 14.1875 C-23.46365085 6.59761469 -11.34514552 -0.18908576 0 0 Z " fill="#16A8E5" transform="translate(240.25,9.9375)"/>
<path d="M0 0 C0.33 0.99 0.66 1.98 1 3 C-0.48281788 5.41886523 -1.98688244 7.61845642 -3.6875 9.875 C-4.13544922 10.48730469 -4.58339844 11.09960938 -5.04492188 11.73046875 C-6.34663904 13.50019777 -7.66968818 15.25170655 -9 17 C-9.72832031 17.97195313 -10.45664062 18.94390625 -11.20703125 19.9453125 C-12.09455078 20.96238281 -12.09455078 20.96238281 -13 22 C-13.66 22 -14.32 22 -15 22 C-14.505 20.515 -14.505 20.515 -14 19 C-13.34 19 -12.68 19 -12 19 C-11.896875 18.4225 -11.79375 17.845 -11.6875 17.25 C-10.89103535 14.64338842 -9.80934723 13.0264689 -8 11 C-7.34 11 -6.68 11 -6 11 C-6 10.01 -6 9.02 -6 8 C-5.34 8 -4.68 8 -4 8 C-3.896875 7.236875 -3.79375 6.47375 -3.6875 5.6875 C-2.95635961 2.82940576 -2.23048087 1.84257115 0 0 Z " fill="#3E6998" transform="translate(48,450)"/>
<path d="M0 0 C0.33 0.66 0.66 1.32 1 2 C-5.34823202 4.30844801 -11.29481414 4.19818283 -18 4 C-15.48115349 1.48115349 -13.56355758 1.1742412 -10.125 0.3125 C-9.07570313 0.04050781 -8.02640625 -0.23148437 -6.9453125 -0.51171875 C-4.13938716 -0.97689205 -2.59856688 -1.09381536 0 0 Z " fill="#275D93" transform="translate(350,269)"/>
<path d="M0 0 C0.33 0.66 0.66 1.32 1 2 C-2.80391296 9.06440978 -10.39402301 16.22833042 -18 19 C-18.99 18.67 -19.98 18.34 -21 18 C-20.33613281 17.62488281 -19.67226563 17.24976563 -18.98828125 16.86328125 C-11.47096043 12.50652743 -6.80328813 8.2877475 -2 1 C-1.34 0.67 -0.68 0.34 0 0 Z " fill="#39689B" transform="translate(369,249)"/>
<path d="M0 0 C-0.70125 0.38929688 -1.4025 0.77859375 -2.125 1.1796875 C-9.37549205 5.45511352 -14.17318268 10.1262802 -19 17 C-20 14 -20 14 -19.29296875 12.03125 C-15.8232411 6.58031834 -6.64690695 -2.21563565 0 0 Z " fill="#346395" transform="translate(122,362)"/>
<path d="M0 0 C2.26663812 7.04276845 -0.94759215 14.61769268 -4 21 C-5.3583275 16.62701088 -4.2812702 13.11979793 -3.125 8.8125 C-2.84462891 7.70745117 -2.84462891 7.70745117 -2.55859375 6.58007812 C-1.14982531 1.14982531 -1.14982531 1.14982531 0 0 Z " fill="#4277B0" transform="translate(47,366)"/>
<path d="M0 0 C0.66 0.66 1.32 1.32 2 2 C0.9054851 3.65226769 -0.2009517 5.29664298 -1.3125 6.9375 C-2.23482422 8.31228516 -2.23482422 8.31228516 -3.17578125 9.71484375 C-5 12 -5 12 -8 13 C-6.40956621 7.91061189 -3.2553049 4.12543357 0 0 Z " fill="#497AB0" transform="translate(99,429)"/>
<path d="M0 0 C1.6454096 4.93622879 0.91569004 9.92953723 0 15 C-2.0625 18.25 -2.0625 18.25 -4 20 C-2.9413873 13.24289769 -1.77874156 6.60675438 0 0 Z " fill="#4C82BD" transform="translate(55,323)"/>
<path d="M0 0 C1.32 0.33 2.64 0.66 4 1 C4.33 2.65 4.66 4.3 5 6 C5.66 6 6.32 6 7 6 C7.33 8.64 7.66 11.28 8 14 C5.79062655 11.79062655 4.80155486 9.80140222 3.4375 7 C3.00308594 6.113125 2.56867188 5.22625 2.12109375 4.3125 C1.75113281 3.549375 1.38117188 2.78625 1 2 C0.67 1.34 0.34 0.68 0 0 Z " fill="#456E9B" transform="translate(363,116)"/>
<path d="M0 0 C0.99 0.33 1.98 0.66 3 1 C-0.3 4.3 -3.6 7.6 -7 11 C-7 7.22089522 -6.00296038 6.53893899 -3.5 3.8125 C-2.8503125 3.09707031 -2.200625 2.38164062 -1.53125 1.64453125 C-1.0259375 1.10183594 -0.520625 0.55914063 0 0 Z " fill="#2DB8EF" transform="translate(211,22)"/>
<path d="M0 0 C0.66 0 1.32 0 2 0 C-0.60909091 6.70909091 -0.60909091 6.70909091 -2 9 C-2.99 9.33 -3.98 9.66 -5 10 C-3.66749209 6.4124787 -2.169283 3.1635377 0 0 Z " fill="#4474A7" transform="translate(208,416)"/>
<path d="M0 0 C0.99 0.33 1.98 0.66 3 1 C0.69 3.97 -1.62 6.94 -4 10 C-4.33 9.01 -4.66 8.02 -5 7 C-4.34 7 -3.68 7 -3 7 C-2.87625 6.21625 -2.7525 5.4325 -2.625 4.625 C-2 2 -2 2 0 0 Z " fill="#4B83BE" transform="translate(88,395)"/>
<path d="M0 0 C0.33 0.66 0.66 1.32 1 2 C-2.625 7.875 -2.625 7.875 -6 9 C-5.33333333 7.66666667 -4.66666667 6.33333333 -4 5 C-3.67 4.278125 -3.34 3.55625 -3 2.8125 C-2 1 -2 1 0 0 Z " fill="#406FA3" transform="translate(369,249)"/>
<path d="M0 0 C0.66 0.33 1.32 0.66 2 1 C-0.97 4.96 -0.97 4.96 -4 9 C-5 6 -5 6 -4.25 3.9375 C-3 2 -3 2 0 0 Z " fill="#4272A7" transform="translate(107,370)"/>
<path d="M0 0 C0.99 0.33 1.98 0.66 3 1 C1.515 6.445 1.515 6.445 0 12 C-0.33 12 -0.66 12 -1 12 C-0.67 8.04 -0.34 4.08 0 0 Z " fill="#0E7BC0" transform="translate(282,18)"/>
<path d="M0 0 C0 3.57575896 -1.08840607 5.05295935 -3 8 C-3.75 6.25 -3.75 6.25 -4 4 C-2.0625 1.75 -2.0625 1.75 0 0 Z " fill="#38699C" transform="translate(202,428)"/>
</svg>
